<svg width="100" height="100" viewBox="0 0 100 100" fill="none" xmlns="http://www.w3.org/2000/svg">
<path d="M7.02778 45.4071C7.02778 44.3238 7.91667 43.9071 9.38889 43.9071C11.5 43.9071 14.1667 44.546 16.2778 45.6849V39.1571C13.9722 38.2405 11.6944 37.8793 9.38889 37.8793C3.75 37.8793 0 40.8238 0 45.7405C0 53.4071 10.5556 52.1849 10.5556 55.4905C10.5556 56.7682 9.44444 57.1849 7.88889 57.1849C5.58333 57.1849 2.63889 56.2405 0.305556 54.9627V61.5738C2.88889 62.6849 5.5 63.1571 7.88889 63.1571C13.6667 63.1571 17.6389 60.296 17.6389 55.3238C17.6111 47.046 7.02778 48.5182 7.02778 45.4071ZM25.8056 32.3238L19.0278 33.7682L19 56.0182C19 60.1293 22.0833 63.1571 26.1944 63.1571C28.4722 63.1571 30.1389 62.7405 31.0556 62.2405V56.6016C30.1667 56.9627 25.7778 58.2405 25.7778 54.1293V44.2682H31.0556V38.3516H25.7778L25.8056 32.3238ZM39.6944 40.4071L39.25 38.3516H33.25V62.6571H40.1944V46.1849C41.8333 44.046 44.6111 44.4349 45.4722 44.7405V38.3516C44.5833 38.0182 41.3333 37.4071 39.6944 40.4071ZM47.1667 38.3516H54.1389V62.6571H47.1667V38.3516ZM47.1667 36.2405L54.1389 34.7405V29.1016L47.1667 30.5738V36.2405ZM68.6389 37.8793C65.9167 37.8793 64.1667 39.1571 63.1944 40.046L62.8333 38.3238H56.7222V70.7127L63.6667 69.2405L63.6944 61.3793C64.6945 62.1016 66.1667 63.1293 68.6111 63.1293C73.5833 63.1293 78.1111 59.1293 78.1111 50.3238C78.0833 42.2682 73.5 37.8793 68.6389 37.8793ZM66.9722 57.0182C65.3333 57.0182 64.3611 56.4349 63.6944 55.7127L63.6667 45.4071C64.3889 44.6016 65.3889 44.046 66.9722 44.046C69.5 44.046 71.25 46.8793 71.25 50.5182C71.25 54.2405 69.5278 57.0182 66.9722 57.0182ZM100 50.6016C100 43.4905 96.5556 37.8793 89.9722 37.8793C83.3611 37.8793 79.3611 43.4905 79.3611 50.546C79.3611 58.9071 84.0833 63.1293 90.8611 63.1293C94.1667 63.1293 96.6667 62.3793 98.5555 61.3238V55.7682C96.6667 56.7127 94.5 57.296 91.75 57.296C89.0556 57.296 86.6667 56.3516 86.3611 53.0738H99.9444C99.9444 52.7127 100 51.2682 100 50.6016ZM86.2778 47.9627C86.2778 44.8238 88.1944 43.5182 89.9444 43.5182C91.6389 43.5182 93.4444 44.8238 93.4444 47.9627H86.2778Z" fill="#6772E5"/>
</svg>
